<svg xmlns="http://www.w3.org/2000/svg" width="200" height="406" viewBox="0 0 200 406" shape-rendering="crispEdges">
  <defs>
    <pattern id="bricks" width="16" height="12" patternUnits="userSpaceOnUse">
      <rect width="16" height="12" fill="#8e877c"/>
      <rect x="2" y="2" width="6" height="4" fill="#a7a094" opacity=".35"/>
      <rect x="10" y="8" width="4" height="4" fill="#6f685f" opacity=".35"/>
      <rect y="0" width="16" height="2" fill="#6a645b"/>
      <rect y="6" width="16" height="2" fill="#6a645b"/>
      <rect x="8" y="0" width="2" height="6" fill="#6a645b"/>
      <rect x="0" y="6" width="2" height="6" fill="#6a645b"/>
    </pattern>
  </defs>
  <rect x="64" y="4" width="2" height="22" fill="#34333a"/>
  <path d="M66 6h14l-4 4 6 4H66z" fill="#7a2234" stroke="#34333a" stroke-width="1"/>
  <rect x="66" y="7" width="8" height="2" fill="#a33a50"/>
  <rect x="136" y="4" width="2" height="22" fill="#34333a"/>
  <path d="M138 6h14l-4 4 6 4H138z" fill="#7a2234" stroke="#34333a" stroke-width="1"/>
  <rect x="138" y="7" width="8" height="2" fill="#a33a50"/>
  <rect x="12" y="290" width="8" height="10" fill="#a7a094" stroke="#34333a" stroke-width="2"/>
  <rect x="25" y="290" width="8" height="10" fill="#a7a094" stroke="#34333a" stroke-width="2"/>
  <rect x="38" y="290" width="8" height="10" fill="#a7a094" stroke="#34333a" stroke-width="2"/>
  <rect x="50" y="290" width="8" height="10" fill="#a7a094" stroke="#34333a" stroke-width="2"/>
  <rect x="12" y="300" width="46" height="72" fill="url(#bricks)" stroke="#34333a" stroke-width="2"/>
  <rect x="44" y="300" width="14" height="72" fill="#000" opacity="0.12"/>
  <rect x="12" y="300" width="46" height="6" fill="#a7a094" stroke="#34333a" stroke-width="2"/>
  <rect x="142" y="290" width="8" height="10" fill="#a7a094" stroke="#34333a" stroke-width="2"/>
  <rect x="155" y="290" width="8" height="10" fill="#a7a094" stroke="#34333a" stroke-width="2"/>
  <rect x="168" y="290" width="8" height="10" fill="#a7a094" stroke="#34333a" stroke-width="2"/>
  <rect x="180" y="290" width="8" height="10" fill="#a7a094" stroke="#34333a" stroke-width="2"/>
  <rect x="142" y="300" width="46" height="72" fill="url(#bricks)" stroke="#34333a" stroke-width="2"/>
  <rect x="174" y="300" width="14" height="72" fill="#000" opacity="0.12"/>
  <rect x="142" y="300" width="46" height="6" fill="#a7a094" stroke="#34333a" stroke-width="2"/>
  <rect x="62" y="70" width="76" height="208" fill="url(#bricks)" stroke="#34333a" stroke-width="2"/>
  <rect x="64" y="72" width="6" height="204" fill="#fff" opacity="0.14"/>
  <rect x="112" y="72" width="24" height="204" fill="#000" opacity="0.14"/>
  <rect x="56" y="56" width="88" height="14" fill="#8e877c" stroke="#34333a" stroke-width="2"/>
  <rect x="60" y="62" width="4" height="6" fill="#34333a" opacity=".7"/>
  <rect x="70" y="62" width="4" height="6" fill="#34333a" opacity=".7"/>
  <rect x="80" y="62" width="4" height="6" fill="#34333a" opacity=".7"/>
  <rect x="90" y="62" width="4" height="6" fill="#34333a" opacity=".7"/>
  <rect x="100" y="62" width="4" height="6" fill="#34333a" opacity=".7"/>
  <rect x="110" y="62" width="4" height="6" fill="#34333a" opacity=".7"/>
  <rect x="120" y="62" width="4" height="6" fill="#34333a" opacity=".7"/>
  <rect x="130" y="62" width="4" height="6" fill="#34333a" opacity=".7"/>
  <rect x="52" y="36" width="96" height="20" fill="url(#bricks)" stroke="#34333a" stroke-width="2"/>
  <rect x="54" y="38" width="92" height="3" fill="#fff" opacity="0.2"/>
  <rect x="118" y="38" width="28" height="16" fill="#000" opacity="0.12"/>
  <rect x="52" y="24" width="10" height="12" fill="#a7a094" stroke="#34333a" stroke-width="2"/>
  <rect x="68" y="24" width="10" height="12" fill="#a7a094" stroke="#34333a" stroke-width="2"/>
  <rect x="84" y="24" width="10" height="12" fill="#a7a094" stroke="#34333a" stroke-width="2"/>
  <rect x="100" y="24" width="10" height="12" fill="#a7a094" stroke="#34333a" stroke-width="2"/>
  <rect x="116" y="24" width="10" height="12" fill="#a7a094" stroke="#34333a" stroke-width="2"/>
  <rect x="132" y="24" width="10" height="12" fill="#a7a094" stroke="#34333a" stroke-width="2"/>
  <rect x="56" y="276" width="10" height="10" fill="#a7a094" stroke="#34333a" stroke-width="2"/>
  <rect x="72" y="276" width="10" height="10" fill="#a7a094" stroke="#34333a" stroke-width="2"/>
  <rect x="88" y="276" width="10" height="10" fill="#a7a094" stroke="#34333a" stroke-width="2"/>
  <rect x="104" y="276" width="10" height="10" fill="#a7a094" stroke="#34333a" stroke-width="2"/>
  <rect x="120" y="276" width="10" height="10" fill="#a7a094" stroke="#34333a" stroke-width="2"/>
  <rect x="134" y="276" width="10" height="10" fill="#a7a094" stroke="#34333a" stroke-width="2"/>
  <rect x="56" y="286" width="88" height="12" fill="#a7a094" stroke="#34333a" stroke-width="2"/>
  <rect x="118" y="288" width="24" height="8" fill="#000" opacity="0.1"/>
  <rect x="58" y="298" width="84" height="74" fill="url(#bricks)" stroke="#34333a" stroke-width="2"/>
  <rect x="116" y="300" width="24" height="70" fill="#000" opacity="0.12"/>
  <rect x="27" y="312" width="24" height="3" fill="#34333a"/>
  <path d="M30 315H48V352L39 360L30 352Z" fill="#8f2430" stroke="#c9a23b" stroke-width="2"/>
  <rect x="32" y="317" width="4" height="34" fill="#621822" opacity=".6"/>
  <path d="M37 325h4v2h2v4h-2v2h3v6h-2v-2h-2v4h-2v-3h-2v3h-2v-4h1v-6h1v-4z" fill="#d9b44a"/>
  <rect x="149" y="312" width="24" height="3" fill="#34333a"/>
  <path d="M152 315H170V352L161 360L152 352Z" fill="#8f2430" stroke="#c9a23b" stroke-width="2"/>
  <rect x="154" y="317" width="4" height="34" fill="#621822" opacity=".6"/>
  <path d="M159 325h4v2h2v4h-2v2h3v6h-2v-2h-2v4h-2v-3h-2v3h-2v-4h1v-6h1v-4z" fill="#d9b44a"/>
  <path d="M80 372V332a20 20 0 0 1 40 0V372" fill="none" stroke="#a7a094" stroke-width="4"/>
  <path d="M82 372V332a18 18 0 0 1 36 0V372Z" fill="#6b4a2e" stroke="#34333a" stroke-width="2"/>
  <rect x="91" y="318" width="2" height="54" fill="#4a321f"/>
  <rect x="100" y="318" width="2" height="54" fill="#4a321f"/>
  <rect x="109" y="318" width="2" height="54" fill="#4a321f"/>
  <rect x="83" y="340" width="34" height="3" fill="#4c4c55"/>
  <rect x="83" y="360" width="34" height="3" fill="#4c4c55"/>
  <rect x="95" y="324" width="10" height="9" fill="#1f1d24" stroke="#34333a" stroke-width="1"/>
  <path d="M98 324v9M102 324v9M95 328h10" stroke="#6d6d78" stroke-width="1"/>
  <rect x="112" y="350" width="3" height="3" fill="#c0c0c8"/>
  <rect x="129" y="334" width="3" height="10" fill="#4a321f"/>
  <rect x="127" y="331" width="7" height="4" fill="#34333a"/>
  <rect x="128" y="325" width="5" height="6" fill="#ff9a2e"/>
  <rect x="129" y="323" width="3" height="4" fill="#ffe27a"/>
  <rect x="62" y="358" width="14" height="14" fill="#8a6238" stroke="#34333a" stroke-width="2"/>
  <path d="M62 358l14 14M76 358l-14 14" stroke="#5e4022" stroke-width="2"/>
  <rect x="66" y="346" width="12" height="12" fill="#8a6238" stroke="#34333a" stroke-width="2"/>
  <path d="M66 346l12 12M78 346l-12 12" stroke="#5e4022" stroke-width="2"/>
  <rect x="124" y="362" width="16" height="10" fill="#7a5530" stroke="#34333a" stroke-width="2"/>
  <rect x="124" y="365" width="16" height="2" fill="#4c4c55"/>
  <rect x="4" y="372" width="192" height="32" fill="#8e877c" stroke="#34333a" stroke-width="2"/>
  <rect x="6" y="374" width="188" height="3" fill="#fff" opacity="0.2"/>
  <rect x="100" y="377" width="94" height="25" fill="#000" opacity="0.14"/>
  <path d="M52 374v28M148 374v28" stroke="#6a645b" stroke-width="2"/>
</svg>
